<svg width="90" height="87" viewBox="0 0 90 87" fill="none" xmlns="http://www.w3.org/2000/svg">
<circle cx="31.3165" cy="27.2704" r="5.34212" fill="url(#paint0_radial_2182:640)"/>
<g opacity="0.67" filter="url(#filter0_f_2182:640)">
<path d="M42.6346 27.9885C46.2124 31.2174 54.6084 34.6413 51.3795 38.2191C48.1506 41.7968 29.6949 52.017 22.0105 48.0666C18.4328 44.8377 25.2159 34.4411 28.4448 30.8633C31.6737 27.2855 39.0568 24.7596 42.6346 27.9885Z" fill="url(#paint1_linear_2182:640)" fill-opacity="0.3"/>
</g>
<g filter="url(#filter1_ii_2182:640)">
<path fill-rule="evenodd" clip-rule="evenodd" d="M37.0981 41.9326V41.9329H30.073C26.5764 41.9329 23.7418 39.0983 23.7418 35.6017C23.7418 32.105 26.5764 29.2705 30.073 29.2705H30.4199C31.6472 29.2705 32.7971 29.6015 33.7853 30.1792C35.0699 26.3732 38.6693 23.6328 42.9088 23.6328H43.3858C48.4392 23.6328 52.5358 27.7293 52.5358 32.7827C52.5358 37.8361 48.4392 41.9326 43.3858 41.9326H37.0981Z" fill="white"/>
</g>
<defs>
<filter id="filter0_f_2182:640" x="-16.881" y="-11.3745" width="106.862" height="98.2113" filterUnits="userSpaceOnUse" color-interpolation-filters="sRGB">
<feFlood flood-opacity="0" result="BackgroundImageFix"/>
<feBlend mode="normal" in="SourceGraphic" in2="BackgroundImageFix" result="shape"/>
<feGaussianBlur stdDeviation="18.9384" result="effect1_foregroundBlur_2182:640"/>
</filter>
<filter id="filter1_ii_2182:640" x="8.59094" y="11.0071" width="50.6784" height="40.1846" filterUnits="userSpaceOnUse" color-interpolation-filters="sRGB">
<feFlood flood-opacity="0" result="BackgroundImageFix"/>
<feBlend mode="normal" in="SourceGraphic" in2="BackgroundImageFix" result="shape"/>
<feColorMatrix in="SourceAlpha" type="matrix" values="0 0 0 0 0 0 0 0 0 0 0 0 0 0 0 0 0 0 127 0" result="hardAlpha"/>
<feOffset dx="6.73367" dy="-12.6256"/>
<feGaussianBlur stdDeviation="12.6256"/>
<feComposite in2="hardAlpha" operator="arithmetic" k2="-1" k3="1"/>
<feColorMatrix type="matrix" values="0 0 0 0 0 0 0 0 0 0 0 0 0 0 0 0 0 0 0.2 0"/>
<feBlend mode="normal" in2="shape" result="effect1_innerShadow_2182:640"/>
<feColorMatrix in="SourceAlpha" type="matrix" values="0 0 0 0 0 0 0 0 0 0 0 0 0 0 0 0 0 0 127 0" result="hardAlpha"/>
<feOffset dx="-15.1508" dy="9.2588"/>
<feGaussianBlur stdDeviation="12.6256"/>
<feComposite in2="hardAlpha" operator="arithmetic" k2="-1" k3="1"/>
<feColorMatrix type="matrix" values="0 0 0 0 1 0 0 0 0 1 0 0 0 0 1 0 0 0 1 0"/>
<feBlend mode="normal" in2="effect1_innerShadow_2182:640" result="effect2_innerShadow_2182:640"/>
</filter>
<radialGradient id="paint0_radial_2182:640" cx="0" cy="0" r="1" gradientUnits="userSpaceOnUse" gradientTransform="translate(33.442 24.3584) rotate(132.136) scale(11.1308)">
<stop stop-color="#FFF72C"/>
<stop offset="1" stop-color="#DF7800"/>
</radialGradient>
<linearGradient id="paint1_linear_2182:640" x1="25.8101" y1="49.6486" x2="46.5919" y2="26.326" gradientUnits="userSpaceOnUse">
<stop stop-color="#254659"/>
<stop offset="1" stop-color="#023553"/>
</linearGradient>
</defs>
</svg>
