<svg width="187" height="167" viewBox="0 0 187 167" fill="none" xmlns="http://www.w3.org/2000/svg">
<path d="M84.0813 86.9093H111.245L95.6293 109.841L113.887 110.186L75.5646 155.545L84.8503 120.962H67.8511L84.0813 86.9093Z" fill="url(#paint0_linear_1506:2526)"/>
<path d="M126.055 111.045H137.981L131.125 121.113L139.141 121.265L122.315 141.179L126.392 125.996H118.93L126.055 111.045Z" fill="url(#paint1_linear_1506:2526)"/>
<path d="M43.4526 121.227H55.3788L48.5229 131.295L56.5393 131.447L39.7132 151.362L43.7902 136.178H36.3281L43.4526 121.227Z" fill="url(#paint2_linear_1506:2526)"/>
<g filter="url(#filter0_d_1506:2526)">
<path d="M125.585 116.438H49.1959C41.7855 116.433 34.6645 113.561 29.3238 108.424C23.983 103.286 20.8365 96.2825 20.543 88.8779C20.2495 81.4733 22.8318 74.2422 27.7492 68.6985C32.6665 63.1547 39.5378 59.728 46.9245 59.1359C47.9779 51.6977 51.3367 44.777 56.5285 39.3473C61.7203 33.9177 68.4837 30.2523 75.8673 28.867C83.2508 27.4817 90.8829 28.4461 97.6898 31.6246C104.497 34.803 110.136 40.0355 113.814 46.586C120.56 44.2508 127.848 43.9779 134.75 45.8022C141.651 47.6265 147.853 51.4653 152.564 56.8289C157.275 62.1924 160.281 68.8377 161.2 75.917C162.118 82.9963 160.907 90.1887 157.721 96.5769C155.851 102.348 152.201 107.379 147.295 110.948C142.388 114.516 136.478 116.438 130.411 116.438H125.585Z" fill="url(#paint3_linear_1506:2526)"/>
<path d="M130.411 116.039C133.492 116.039 136.52 115.547 139.413 114.577C142.21 113.639 144.837 112.27 147.219 110.509C149.574 108.767 151.638 106.681 153.354 104.309C155.092 101.906 156.434 99.2637 157.342 96.4541L157.351 96.4253L157.365 96.3982C158.573 93.9848 159.503 91.4317 160.129 88.81C160.774 86.1123 161.101 83.3246 161.101 80.5244C161.101 78.1145 160.858 75.7063 160.379 73.3666C159.913 71.0865 159.217 68.8438 158.31 66.7006C157.42 64.5963 156.318 62.5667 155.036 60.6681C153.765 58.7874 152.306 57.0189 150.699 55.4117C149.092 53.8045 147.323 52.3453 145.442 51.0748C143.544 49.7921 141.514 48.6904 139.41 47.8004C137.267 46.8939 135.024 46.1977 132.744 45.7311C130.404 45.2524 127.996 45.0096 125.586 45.0096C121.596 45.0096 117.679 45.6663 113.945 46.9614L113.63 47.0707L113.466 46.78C110.427 41.3762 106.007 36.838 100.682 33.6561C97.9899 32.047 95.0971 30.8035 92.0846 29.9602C88.9766 29.0902 85.7484 28.649 82.4895 28.649C78.1061 28.649 73.8272 29.4379 69.7717 30.9938C65.8539 32.4969 62.2599 34.6681 59.0895 37.4471C55.9374 40.2102 53.3216 43.4704 51.3146 47.137C49.2584 50.8937 47.9145 54.9489 47.3202 59.1897L47.2757 59.5072L46.9562 59.5322C43.3814 59.812 39.9421 60.7532 36.7338 62.3295C33.6163 63.8613 30.8325 65.933 28.4597 68.4872C23.5841 73.7356 20.899 80.5738 20.899 87.742C20.899 91.5623 21.6472 95.2681 23.1226 98.7564C23.8318 100.433 24.7096 102.05 25.7315 103.563C26.7439 105.061 27.9065 106.471 29.1871 107.751C30.4677 109.032 31.8769 110.194 33.3753 111.207C34.8881 112.229 36.5052 113.107 38.1818 113.816C41.6702 115.291 45.376 116.039 49.1962 116.039H125.586H130.411ZM130.411 116.438H125.586H49.1962C33.3478 116.438 20.5 103.59 20.5 87.742C20.5 72.6578 32.1379 60.2918 46.925 59.1344C49.3709 41.6807 64.3616 28.25 82.4895 28.25C95.9381 28.25 107.66 35.6415 113.814 46.5844C117.502 45.3053 121.463 44.6105 125.586 44.6105C145.421 44.6105 161.5 60.6899 161.5 80.5244C161.5 86.2943 160.14 91.746 157.722 96.5768C153.996 108.102 143.177 116.438 130.411 116.438Z" fill="white" fill-opacity="0.5"/>
</g>
<defs>
<filter id="filter0_d_1506:2526" x="0.5" y="0.249985" width="201" height="148.188" filterUnits="userSpaceOnUse" color-interpolation-filters="sRGB">
<feFlood flood-opacity="0" result="BackgroundImageFix"/>
<feColorMatrix in="SourceAlpha" type="matrix" values="0 0 0 0 0 0 0 0 0 0 0 0 0 0 0 0 0 0 127 0" result="hardAlpha"/>
<feOffset dx="10" dy="2"/>
<feGaussianBlur stdDeviation="15"/>
<feColorMatrix type="matrix" values="0 0 0 0 0.501961 0 0 0 0 0.501961 0 0 0 0 0.501961 0 0 0 0.302 0"/>
<feBlend mode="normal" in2="BackgroundImageFix" result="effect1_dropShadow_1506:2526"/>
<feBlend mode="normal" in="SourceGraphic" in2="effect1_dropShadow_1506:2526" result="shape"/>
</filter>
<linearGradient id="paint0_linear_1506:2526" x1="86.6339" y1="121.227" x2="65.13" y2="113.344" gradientUnits="userSpaceOnUse">
<stop stop-color="#FFD100"/>
<stop offset="1" stop-color="#FFF0AA"/>
</linearGradient>
<linearGradient id="paint1_linear_1506:2526" x1="127.176" y1="126.112" x2="117.735" y2="122.651" gradientUnits="userSpaceOnUse">
<stop stop-color="#FFD100"/>
<stop offset="1" stop-color="#FFF0AA"/>
</linearGradient>
<linearGradient id="paint2_linear_1506:2526" x1="44.5743" y1="136.294" x2="35.1334" y2="132.833" gradientUnits="userSpaceOnUse">
<stop stop-color="#FFD100"/>
<stop offset="1" stop-color="#FFF0AA"/>
</linearGradient>
<linearGradient id="paint3_linear_1506:2526" x1="91.0095" y1="28.251" x2="131.968" y2="127.279" gradientUnits="userSpaceOnUse">
<stop stop-color="white" stop-opacity="0.604"/>
<stop offset="1" stop-color="white" stop-opacity="0.2"/>
</linearGradient>
</defs>
</svg>
